Coordinates
version=1
nRows=19
nColumns=24
inDegrees=yes

Units are S.I. units (second, meters, Newtons, ...)
Angles are in degrees.

endheader
time	pelvis_tilt	pelvis_list	pelvis_rotation	pelvis_tx	pelvis_ty	pelvis_tz	hip_flexion_r	hip_adduction_r	hip_rotation_r	knee_angle_r	ankle_angle_r	subtalar_angle_r	mtp_angle_r	hip_flexion_l	hip_adduction_l	hip_rotation_l	knee_angle_l	ankle_angle_l	subtalar_angle_l	mtp_angle_l	lumbar_extension	lumbar_bending	lumbar_rotation
      0.73300000	     -2.43103868	      8.21141064	     12.40398519	      0.04548591	      0.97953276	      0.23339501	     28.57099785	    -10.85250587	     -5.56814888	     -1.77125845	     10.01466807	    -11.86324593	      3.55935826	    -20.98413153	      8.48485116	     15.38195342	     -6.32754165	      6.47365840	    -12.09366336	     14.10555790	     -0.76327163	     -9.62663466	     -2.94269795
      0.73716667	     -2.44982504	      8.16945817	     12.52292379	      0.05164386	      0.97899694	      0.23349594	     28.58147083	    -10.82869546	     -5.51315884	     -2.23233569	     10.08706074	    -12.12467144	      3.54582497	    -21.14695651	      8.32700263	     15.37660406	     -6.61612989	      6.23307938	    -11.98575866	     14.12115343	     -0.70174960	     -9.56032682	     -3.01321382
      0.74133333	     -2.48280266	      8.10947143	     12.63605535	      0.05784989	      0.97846002	      0.23362270	     28.58785289	    -10.77874101	     -5.39316656	     -2.67907054	     10.04037161	    -12.48073854	      3.52943641	    -21.26803613	      8.15546206	     15.31681348	     -6.94706249	      6.00606622	    -11.79264274	     14.17537130	     -0.63290836	     -9.47921383	     -3.15114379
      0.74550000	     -2.48643151	      8.04242046	     12.75226217	      0.06410301	      0.97799573	      0.23373805	     28.57183011	    -10.72007385	     -5.39454196	     -3.17666633	      9.98689884	    -12.68517091	      3.52596573	    -21.41499073	      7.97188768	     15.29386194	     -7.28532490	      5.76082790	    -11.71590009	     14.19585785	     -0.58781996	     -9.39535681	     -3.18185718
      0.74966667	     -2.51466442	      7.95664424	     12.85288064	      0.07042842	      0.97751286	      0.23391684	     28.53298406	    -10.62228499	     -5.20980090	     -3.58629951	      9.76248216	    -13.18916513	      3.53235007	    -21.49033839	      7.77368322	     15.10948299	     -7.69902144	      5.55856978	    -11.35951918	     14.37161149	     -0.48290185	     -9.27815941	     -3.36525017
      0.75383333	     -2.53098522	      7.85795594	     12.94739598	      0.07682381	      0.97707923	      0.23406754	     28.50168177	    -10.51246031	     -5.15293869	     -4.06096996	      9.60506004	    -13.40880588	      3.54633481	    -21.59528713	      7.56559139	     15.01240068	     -8.06646480	      5.21716927	    -11.18850424	     14.48700786	     -0.39262447	     -9.14015339	     -3.41314114
      0.75800000	     -2.54287728	      7.75065988	     13.03780597	      0.08323139	      0.97667215	      0.23426953	     28.44973485	    -10.38001770	     -5.03427131	     -4.51245350	      9.29982281	    -13.83790331	      3.60344166	    -21.65186505	      7.34838673	     14.81150047	     -8.53574152	      4.99949414	    -10.87604898	     14.80694977	     -0.30361229	     -9.00923131	     -3.51808261
      0.76216667	     -2.56712763	      7.62483222	     13.11752611	      0.08973184	      0.97629109	      0.23443498	     28.42070290	    -10.23159277	     -5.00086697	     -4.99768436	      9.03259255	    -14.00863325	      3.63991597	    -21.71668688	      7.12400424	     14.68902026	     -8.94335662	      4.59053875	    -10.72954380	     14.97634335	     -0.18662616	     -8.83826534	     -3.55829378
      0.76633333	     -2.59195030	      7.48848526	     13.18903105	      0.09623719	      0.97592390	      0.23466557	     28.38076260	    -10.05581675	     -4.88667005	     -5.45991303	      8.62772208	    -14.46087658	      3.74909148	    -21.71339473	      6.89011930	     14.41995475	     -9.48113299	      4.33382742	    -10.38529553	     15.42032453	     -0.04987555	     -8.67717385	     -3.64361138
      0.77050000	     -2.60285463	      7.34231643	     13.24814992	      0.10281308	      0.97562796	      0.23485436	     28.34177688	     -9.87266020	     -4.89323188	     -5.96401783	      8.29128982	    -14.55249835	      3.79095648	    -21.75565650	      6.65465442	     14.27049403	     -9.93896268	      3.84657876	    -10.27346818	     15.58289471	      0.06622730	     -8.47982736	     -3.66385653
      0.77466667	     -2.63701173	      7.18555664	     13.29401444	      0.10938211	      0.97530177	      0.23512155	     28.34319393	     -9.66913354	     -4.84974815	     -6.49296100	      7.86342259	    -14.85174861	      5.77210376	    -21.68155647	      6.40860345	     13.87186012	    -10.55380608	      3.45813750	     -9.89976203	     22.68551799	      0.21888750	     -8.29958696	     -3.68566494
      0.77883333	     -2.65434736	      6.99863677	     13.33109695	      0.11602029	      0.97506315	      0.23536411	     28.29932558	     -9.42472045	     -4.78208748	     -6.96853752	      7.36512699	    -15.18547654	      5.76199265	    -21.64901597	      6.14534202	     13.63661414	    -11.11931316	      3.00236971	     -9.73259364	     22.74992550	      0.36563652	     -8.05555472	     -3.73095311
      0.78300000	     -2.66322879	      6.82527484	     13.34565907	      0.12267352	      0.97487642	      0.23560304	     28.28057526	     -9.19319009	     -4.79533982	     -7.51725842	      6.94527849	    -15.26811991	      5.76283047	    -21.61480363	      5.90684616	     13.38980010	    -11.69624271	      2.43891573	     -9.61076391	     22.79427213	      0.51244025	     -7.82733272	     -3.74378302
      0.78716667	     -2.72378791	      6.61410848	     13.35386248	      0.12932204	      0.97462777	      0.23592200	     28.31776411	     -8.91614384	     -4.69927153	     -8.05549590	      6.44281420	    -15.62236481	      5.78860315	    -21.43217689	      5.63685222	     12.95531350	    -12.44110326	      2.05559838	     -9.16536696	     22.99086896	      0.71352232	     -7.57800905	     -3.72971594
      0.79133333	     -2.75087806	      6.40105277	     13.34088421	      0.13599915	      0.97447087	      0.23623150	     28.33536779	     -8.63131400	     -4.66744088	     -8.62884441	      5.98691482	    -15.80119000	      5.83404584	    -21.28213727	      5.36777092	     12.53585115	    -13.17498377	      1.54997344	     -8.82502694	     23.27735716	      0.88941710	     -7.30888128	     -3.70545855
      0.79550000	     -2.78700383	      6.18570804	     13.31093353	      0.14267033	      0.97434292	      0.23655875	     28.38064609	     -8.34200791	     -4.64176747	     -9.23666227	      5.55482431	    -15.93702640	      5.89196034	    -21.09478561	      5.10818457	     12.10538256	    -13.95149645	      0.99764893	     -8.51265507	     23.64122547	      1.07911884	     -7.03582322	     -3.67439162
      0.79966667	     -2.82153731	      5.96541166	     13.26490777	      0.14933823	      0.97424983	      0.23691099	     28.44043937	     -8.04391834	     -4.61756532	     -9.87689988	      5.14928950	    -16.04027925	      5.96430790	    -20.87596595	      4.84699456	     11.63213551	    -14.77951000	      0.41944108	     -8.16972928	     24.11700980	      1.26629571	     -6.75956557	     -3.62299871
      0.80383333	     -2.81209505	      5.74127296	     13.20871587	      0.15600218	      0.97427632	      0.23726582	     28.45109211	     -7.73289972	     -4.60805067	    -10.51690707	      4.74360608	    -16.15153231	      6.84359671	    -20.68983241	      4.57485322	     11.17126372	    -15.60157744	     -0.32043246	     -7.98274319	     30.61254686	      1.40027727	     -6.45816612	     -3.63010785
      0.80800000	     -2.84314702	      5.52202540	     13.12411976	      0.16264271	      0.97425387	      0.23764052	     28.55001719	     -7.43198246	     -4.61403902	    -11.24811991	      4.46024812	    -16.08910467	      6.83285391	    -20.42031736	      4.33140885	     10.66403294	    -16.51410728	     -0.96613694	     -7.68269953	     30.66754965	      1.58505529	     -6.17345022	     -3.53727504
